<?xml version="1.0" encoding="UTF-8"?>
<!DOCTYPE svg PUBLIC "-//W3C//DTD SVG 1.1//EN" "http://www.w3.org/Graphics/SVG/1.1/DTD/svg11.dtd">
<svg xmlns="http://www.w3.org/2000/svg" version="1.1" width="1920px" height="1080px" style="shape-rendering:geometricPrecision; text-rendering:geometricPrecision; image-rendering:optimizeQuality; fill-rule:evenodd; clip-rule:evenodd" xmlns:xlink="http://www.w3.org/1999/xlink">
<g><path style="opacity:0.996" fill="#ffc007" d="M 1566.5,522.5 C 1564.46,525.579 1562.62,528.912 1561,532.5C 1560.26,533.749 1560.43,534.749 1561.5,535.5C 1561.67,536.492 1561.34,537.158 1560.5,537.5C 1544.2,557.312 1528.03,577.312 1512,597.5C 1511.21,598.745 1510.71,600.078 1510.5,601.5C 1498.56,618.384 1485.89,634.718 1472.5,650.5C 1470.09,650.694 1469.09,652.027 1469.5,654.5C 1459.51,666.504 1449.84,678.837 1440.5,691.5C 1433.5,697.502 1425.5,701.669 1416.5,704C 1291.5,704.667 1166.5,704.667 1041.5,704C 1039.62,703.802 1037.95,703.302 1036.5,702.5C 1037.5,702.5 1038.5,702.5 1039.5,702.5C 1070.84,702.667 1102.17,702.5 1133.5,702C 1100.83,700.538 1068.16,700.038 1035.5,700.5C 1034.89,696.063 1034.22,691.73 1033.5,687.5C 1034.17,684.833 1035.83,683.167 1038.5,682.5C 1124.81,575.836 1210.48,468.502 1295.5,360.5C 1314.47,337.355 1333.3,314.022 1352,290.5C 1355.41,285.934 1358.58,281.268 1361.5,276.5C 1363.42,275.091 1365.25,273.424 1367,271.5C 1396.62,233.545 1426.62,195.878 1457,158.5C 1457.79,157.255 1458.29,155.922 1458.5,154.5C 1460.75,152.756 1462.92,150.756 1465,148.5C 1475.95,133.879 1487.29,119.546 1499,105.5C 1500.09,103.922 1500.93,102.255 1501.5,100.5C 1505.33,97.8266 1508.33,94.3266 1510.5,90C 1510.27,89.6012 1509.94,89.4346 1509.5,89.5C 1509.5,88.8333 1509.83,88.5 1510.5,88.5C 1512.37,88.1412 1513.87,87.1412 1515,85.5C 1525.79,71.046 1536.95,56.8794 1548.5,43C 1556.18,37.5625 1562.01,39.0625 1566,47.5C 1566.5,205.833 1566.67,364.166 1566.5,522.5 Z"/></g>
<g><path style="opacity:1" fill="#ffc007" d="M 355.5,40.5 C 358.862,40.0695 361.695,41.0695 364,43.5C 416.058,109.671 468.558,175.338 521.5,240.5C 522.072,242.255 522.906,243.922 524,245.5C 547.241,274.318 570.241,303.318 593,332.5C 606.632,349.492 620.465,366.159 634.5,382.5C 635.072,384.255 635.906,385.922 637,387.5C 699.481,465.136 761.481,543.136 823,621.5C 825.968,625.174 829.134,628.507 832.5,631.5C 836.754,639.082 842.088,645.748 848.5,651.5C 849.072,653.255 849.906,654.922 851,656.5C 886.38,700.212 921.38,744.212 956,788.5C 957.75,790.424 959.583,792.091 961.5,793.5C 962.136,795.795 963.469,797.461 965.5,798.5C 966.072,800.255 966.906,801.922 968,803.5C 993.907,835.651 1019.57,867.985 1045,900.5C 1053.3,910.828 1061.8,920.828 1070.5,930.5C 1070.71,931.922 1071.21,933.255 1072,934.5C 1080.3,944.828 1088.8,954.828 1097.5,964.5C 1098.07,966.255 1098.91,967.922 1100,969.5C 1115.67,988.833 1131.33,1008.17 1147,1027.5C 1149.58,1032.07 1148.74,1035.73 1144.5,1038.5C 1016.67,1038.17 888.999,1038.5 761.5,1039.5C 760.508,1039.67 759.842,1039.34 759.5,1038.5C 760.738,1038.19 760.738,1037.69 759.5,1037C 754.324,1034.43 749.991,1030.93 746.5,1026.5C 616.547,862.708 486.38,699.042 356,535.5C 354.544,532.924 353.377,530.258 352.5,527.5C 352.5,366.5 352.5,205.5 352.5,44.5C 352.738,42.5956 353.738,41.2623 355.5,40.5 Z"/></g>
<g><path style="opacity:0.643" fill="#ff862d" d="M 359.5,38.5 C 358.167,39.1667 356.833,39.8333 355.5,40.5C 353.738,41.2623 352.738,42.5956 352.5,44.5C 352.167,44.5 351.833,44.5 351.5,44.5C 352.127,39.8811 354.794,37.8811 359.5,38.5 Z"/></g>
<g><path style="opacity:0.878" fill="#ff8f26" d="M 1566.5,522.5 C 1566.67,364.166 1566.5,205.833 1566,47.5C 1562.01,39.0625 1556.18,37.5625 1548.5,43C 1536.95,56.8794 1525.79,71.046 1515,85.5C 1513.87,87.1412 1512.37,88.1412 1510.5,88.5C 1522.54,72.3105 1535.2,56.4771 1548.5,41C 1556.79,36.2886 1562.95,38.122 1567,46.5C 1567.83,205.334 1567.67,364.001 1566.5,522.5 Z"/></g>
<g><path style="opacity:0.957" fill="#ff9524" d="M 1509.5,89.5 C 1509.94,89.4346 1510.27,89.6012 1510.5,90C 1508.33,94.3266 1505.33,97.8266 1501.5,100.5C 1503.92,96.6477 1506.59,92.981 1509.5,89.5 Z"/></g>
<g><path style="opacity:0.609" fill="#ff9d1f" d="M 1501.5,100.5 C 1500.93,102.255 1500.09,103.922 1499,105.5C 1487.29,119.546 1475.95,133.879 1465,148.5C 1462.92,150.756 1460.75,152.756 1458.5,154.5C 1459.07,152.745 1459.91,151.078 1461,149.5C 1474.54,133.026 1488.04,116.692 1501.5,100.5 Z"/></g>
<g><path style="opacity:0.635" fill="#ff9920" d="M 359.5,38.5 C 362.414,39.9061 364.914,41.9061 367,44.5C 418.758,109.712 470.258,175.046 521.5,240.5C 468.558,175.338 416.058,109.671 364,43.5C 361.695,41.0695 358.862,40.0695 355.5,40.5C 356.833,39.8333 358.167,39.1667 359.5,38.5 Z"/></g>
<g><path style="opacity:0.933" fill="#ffa11d" d="M 351.5,44.5 C 351.833,44.5 352.167,44.5 352.5,44.5C 352.5,205.5 352.5,366.5 352.5,527.5C 351.833,527.5 351.5,527.833 351.5,528.5C 350.167,367.167 350.167,205.833 351.5,44.5 Z"/></g>
<g><path style="opacity:0.586" fill="#ff9922" d="M 1458.5,154.5 C 1458.29,155.922 1457.79,157.255 1457,158.5C 1426.62,195.878 1396.62,233.545 1367,271.5C 1365.25,273.424 1363.42,275.091 1361.5,276.5C 1393.08,235.252 1425.41,194.585 1458.5,154.5 Z"/></g>
<g><path style="opacity:0.575" fill="#ff9722" d="M 521.5,240.5 C 559.921,287.252 597.587,334.585 634.5,382.5C 620.465,366.159 606.632,349.492 593,332.5C 570.241,303.318 547.241,274.318 524,245.5C 522.906,243.922 522.072,242.255 521.5,240.5 Z"/></g>
<g><path style="opacity:0.835" fill="#ff9326" d="M 1361.5,276.5 C 1358.58,281.268 1355.41,285.934 1352,290.5C 1333.3,314.022 1314.47,337.355 1295.5,360.5C 1295.17,360.5 1294.83,360.5 1294.5,360.5C 1316.16,331.856 1338.49,303.856 1361.5,276.5 Z"/></g>
<g><path style="opacity:0.831" fill="#ff9623" d="M 634.5,382.5 C 701.254,464.918 767.254,547.918 832.5,631.5C 829.134,628.507 825.968,625.174 823,621.5C 761.481,543.136 699.481,465.136 637,387.5C 635.906,385.922 635.072,384.255 634.5,382.5 Z"/></g>
<g><path style="opacity:0.847" fill="#ff9922" d="M 1294.5,360.5 C 1294.83,360.5 1295.17,360.5 1295.5,360.5C 1210.48,468.502 1124.81,575.836 1038.5,682.5C 1052.09,664.395 1065.93,646.395 1080,628.5C 1151.36,538.979 1222.86,449.646 1294.5,360.5 Z"/></g>
<g><path style="opacity:0.565" fill="#ff8b29" d="M 1566.5,522.5 C 1565.11,526.938 1563.45,531.271 1561.5,535.5C 1560.43,534.749 1560.26,533.749 1561,532.5C 1562.62,528.912 1564.46,525.579 1566.5,522.5 Z"/></g>
<g><path style="opacity:0.4" fill="#ff9127" d="M 1560.5,537.5 C 1560.65,538.552 1560.48,539.552 1560,540.5C 1543.64,561.022 1527.14,581.355 1510.5,601.5C 1510.71,600.078 1511.21,598.745 1512,597.5C 1528.03,577.312 1544.2,557.312 1560.5,537.5 Z"/></g>
<g><path style="opacity:0.831" fill="#ff9126" d="M 832.5,631.5 C 836.801,635.972 840.968,640.639 845,645.5C 846.421,647.405 847.588,649.405 848.5,651.5C 842.088,645.748 836.754,639.082 832.5,631.5 Z"/></g>
<g><path style="opacity:0.502" fill="#ff922b" d="M 1472.5,650.5 C 1471.49,651.872 1470.49,653.205 1469.5,654.5C 1469.09,652.027 1470.09,650.694 1472.5,650.5 Z"/></g>
<g><path style="opacity:0.6" fill="#ff9c23" d="M 1033.5,687.5 C 1034.22,691.73 1034.89,696.063 1035.5,700.5C 1036.83,701.167 1038.17,701.833 1039.5,702.5C 1038.5,702.5 1037.5,702.5 1036.5,702.5C 1034.98,702.489 1033.82,701.823 1033,700.5C 1032.19,695.98 1032.35,691.646 1033.5,687.5 Z"/></g>
<g><path style="opacity:0.973" fill="#ffb70d" d="M 1035.5,700.5 C 1068.16,700.038 1100.83,700.538 1133.5,702C 1102.17,702.5 1070.84,702.667 1039.5,702.5C 1038.17,701.833 1036.83,701.167 1035.5,700.5 Z"/></g>
<g><path style="opacity:0.616" fill="#ff9424" d="M 848.5,651.5 C 886.921,698.252 924.587,745.585 961.5,793.5C 959.583,792.091 957.75,790.424 956,788.5C 921.38,744.212 886.38,700.212 851,656.5C 849.906,654.922 849.072,653.255 848.5,651.5 Z"/></g>
<g><path style="opacity:0.573" fill="#ff9127" d="M 961.5,793.5 C 963.587,794.585 964.92,796.251 965.5,798.5C 963.469,797.461 962.136,795.795 961.5,793.5 Z"/></g>
<g><path style="opacity:0.584" fill="#ff9b20" d="M 352.5,527.5 C 353.377,530.258 354.544,532.924 356,535.5C 486.38,699.042 616.547,862.708 746.5,1026.5C 746.5,1027.17 746.167,1027.5 745.5,1027.5C 615.686,864.57 485.853,701.57 356,538.5C 353.676,535.52 352.176,532.187 351.5,528.5C 351.5,527.833 351.833,527.5 352.5,527.5 Z"/></g>
<g><path style="opacity:0.604" fill="#ff9722" d="M 965.5,798.5 C 1001.25,841.918 1036.25,885.918 1070.5,930.5C 1061.8,920.828 1053.3,910.828 1045,900.5C 1019.57,867.985 993.907,835.651 968,803.5C 966.906,801.922 966.072,800.255 965.5,798.5 Z"/></g>
<g><path style="opacity:0.624" fill="#ff9821" d="M 1070.5,930.5 C 1080.25,941.252 1089.25,952.585 1097.5,964.5C 1088.8,954.828 1080.3,944.828 1072,934.5C 1071.21,933.255 1070.71,931.922 1070.5,930.5 Z"/></g>
<g><path style="opacity:0.843" fill="#ff9722" d="M 1097.5,964.5 C 1115.46,985.731 1132.96,1007.4 1150,1029.5C 1151.47,1034.19 1149.97,1037.52 1145.5,1039.5C 1144.83,1039.5 1144.5,1039.17 1144.5,1038.5C 1148.74,1035.73 1149.58,1032.07 1147,1027.5C 1131.33,1008.17 1115.67,988.833 1100,969.5C 1098.91,967.922 1098.07,966.255 1097.5,964.5 Z"/></g>
<g><path style="opacity:0.914" fill="#ffad13" d="M 746.5,1026.5 C 749.991,1030.93 754.324,1034.43 759.5,1037C 760.738,1037.69 760.738,1038.19 759.5,1038.5C 753.705,1036.27 749.039,1032.6 745.5,1027.5C 746.167,1027.5 746.5,1027.17 746.5,1026.5 Z"/></g>
<g><path style="opacity:0.988" fill="#ffba0b" d="M 761.5,1039.5 C 888.999,1038.5 1016.67,1038.17 1144.5,1038.5C 1144.5,1039.17 1144.83,1039.5 1145.5,1039.5C 1144.39,1040.29 1143.06,1040.79 1141.5,1041C 1017.5,1041.67 893.5,1041.67 769.5,1041C 766.793,1040.6 764.127,1040.1 761.5,1039.5 Z"/></g>
</svg>
